<svg width="131" height="131" viewBox="0 0 88 60" fill="none" xmlns="http://www.w3.org/2000/svg">
<rect width="88" height="60" fill="#069356"/>
<path d="M36 18.0002H44.6704C45.8207 17.9953 46.9686 18.1087 48.097 18.3387C49.102 18.5347 50.0597 18.9321 50.9155 19.5084C51.7282 20.0731 52.386 20.8434 52.8257 21.745C53.3322 22.8499 53.575 24.0632 53.534 25.2841C53.5708 26.4967 53.3461 27.7028 52.8761 28.8156C52.4708 29.7198 51.8447 30.5006 51.0588 31.0819C50.2369 31.6707 49.3071 32.0813 48.3259 32.2887C47.1992 32.5316 46.0505 32.65 44.8993 32.6419H41.1449V42H36V18.0002ZM41.1435 28.1681H44.5701C45.0168 28.1697 45.4625 28.1253 45.9007 28.0358C46.307 27.9521 46.6966 27.7978 47.0526 27.5796C47.3971 27.3618 47.6826 27.0581 47.8827 26.6967C48.1058 26.2621 48.2144 25.7751 48.1977 25.2841C48.2214 24.7599 48.0755 24.2424 47.7829 23.8126C47.5078 23.4392 47.1456 23.1432 46.7298 22.9518C46.2749 22.7406 45.7888 22.6088 45.2917 22.562C44.7881 22.5054 44.2819 22.476 43.7753 22.4739H41.1426L41.1435 28.1681Z" fill="white"/>
</svg>
