<svg height="30" viewBox="0 0 579 86" fill="none" xmlns="http://www.w3.org/2000/svg">
    <path d="M1.99907 84.561C0.895015 84.561 0 83.6659 0 82.5619V2.59917C0 1.49511 0.895013 0.600098 1.99907 0.600098H29.0664C35.7833 0.600098 41.3407 1.71958 45.7387 3.95853C50.1366 6.19749 53.4151 9.27606 55.5741 13.1942C57.7331 17.1124 58.8126 21.5104 58.8126 26.3881C58.8126 31.0259 57.7731 35.3039 55.694 39.2221C53.615 43.0603 50.3765 46.1788 45.9786 48.5777C41.5806 50.8967 35.9432 52.0561 29.0664 52.0561H15.3528V82.5619C15.3528 83.6659 14.4578 84.561 13.3538 84.561H1.99907ZM15.3528 38.5824C15.3528 39.1344 15.8003 39.5819 16.3524 39.5819H28.1069C33.4644 39.5819 37.3026 38.4225 39.6215 36.1035C42.0204 33.7047 43.2198 30.4662 43.2198 26.3881C43.2198 22.23 42.0204 18.9915 39.6215 16.6726C37.3026 14.2737 33.4644 13.0743 28.1069 13.0743H16.3524C15.8003 13.0743 15.3528 13.5218 15.3528 14.0738V38.5824Z" fill="#212322"/>
    <path d="M69.4982 84.561C68.3942 84.561 67.4991 83.6659 67.4991 82.5619V27.0678C67.4991 25.9637 68.3942 25.0687 69.4982 25.0687H79.4151C80.4202 25.0687 81.2691 25.815 81.3977 26.8119L82.4579 35.0284C82.5071 35.41 83.0226 35.5132 83.2259 35.1866C85.3134 31.8341 88.0274 29.1411 91.368 27.1077C94.6207 25.1007 98.3527 23.9623 102.564 23.6923C103.666 23.6217 104.562 24.5244 104.562 25.6284V37.8227C104.562 38.9268 103.667 39.8218 102.563 39.8218H100.244C96.8854 39.8218 93.8868 40.3416 91.2481 41.3811C88.6093 42.4206 86.5303 44.2198 85.011 46.7786C83.5716 49.3374 82.852 52.8957 82.852 57.4536V82.5619C82.852 83.6659 81.957 84.561 80.8529 84.561H69.4982Z" fill="#212322"/>
    <path d="M116.654 84.561C115.55 84.561 114.655 83.6659 114.655 82.5619V27.0678C114.655 25.9637 115.55 25.0687 116.654 25.0687H128.009C129.113 25.0687 130.008 25.9637 130.008 27.0678V82.5619C130.008 83.6659 129.113 84.561 128.009 84.561H116.654Z" fill="#212322"/>
    <path d="M145.033 84.561C143.929 84.561 143.034 83.6659 143.034 82.5619V27.0678C143.034 25.9637 143.929 25.0687 145.033 25.0687H154.89C155.869 25.0687 156.704 25.7778 156.863 26.7439L157.907 33.1049C159.826 30.2263 162.345 27.9473 165.464 26.2681C168.662 24.509 172.341 23.6294 176.499 23.6294C185.694 23.6294 192.211 27.1877 196.049 34.3044C198.208 31.0259 201.087 28.4271 204.685 26.508C208.364 24.5889 212.362 23.6294 216.68 23.6294C224.436 23.6294 230.393 25.9483 234.552 30.5861C238.71 35.224 240.789 42.0208 240.789 50.9766V82.5619C240.789 83.6659 239.894 84.561 238.79 84.561H227.435C226.331 84.561 225.436 83.6659 225.436 82.5619V52.4159C225.436 47.2983 224.436 43.3801 222.437 40.6614C220.518 37.9427 217.52 36.5833 213.441 36.5833C209.283 36.5833 205.925 38.1026 203.366 41.1412C200.887 44.1798 199.648 48.4178 199.648 53.8553V82.5619C199.648 83.6659 198.753 84.561 197.649 84.561H186.294C185.19 84.561 184.295 83.6659 184.295 82.5619V52.4159C184.295 47.2983 183.295 43.3801 181.296 40.6614C179.297 37.9427 176.219 36.5833 172.061 36.5833C167.983 36.5833 164.664 38.1026 162.105 41.1412C159.626 44.1798 158.387 48.4178 158.387 53.8553V82.5619C158.387 83.6659 157.492 84.561 156.388 84.561H145.033Z" fill="#212322"/>
    <path d="M282.272 86.0003C261.878 86.0003 250.447 72.6565 250.447 55.2946C250.447 49.1375 251.726 43.66 254.285 38.8623C256.924 34.0645 260.522 30.3462 265.08 27.7075C269.718 24.9887 275.155 23.6294 281.393 23.6294C287.23 23.6294 292.387 24.9088 296.865 27.4676C301.343 30.0264 304.822 33.5447 307.3 38.0227C309.859 42.4206 311.139 47.3383 311.139 52.7758C311.139 54.0716 311.096 55.3824 311.022 56.6861C310.964 57.729 310.092 58.5331 309.048 58.5331H265.68C266.266 67.0348 273.693 73.1662 282.368 73.1662C288.665 73.1662 293.262 70.5285 296.282 68.1393C296.629 67.8646 297.114 67.8372 297.483 68.0828L305.496 73.4251C306.488 74.0865 306.688 75.468 305.858 76.324C300.373 81.9804 292.399 86.0003 282.272 86.0003ZM281.393 36.1035C277.634 36.1035 274.316 37.183 271.437 39.342C268.826 41.2278 267.07 44.0345 266.17 47.7623C266.023 48.3698 266.496 48.9376 267.121 48.9376H294.483C295.059 48.9376 295.519 48.4512 295.45 47.8794C295.032 44.4539 293.625 41.6881 291.228 39.5819C288.589 37.263 285.311 36.1035 281.393 36.1035Z" fill="#212322"/>
    <path d="M115.386 15.713C117.225 17.3923 119.544 18.2319 122.343 18.2319C125.142 18.2319 127.421 17.3923 129.18 15.713C131.019 14.0338 131.938 11.9148 131.938 9.35601C131.938 6.79721 131.019 4.71817 129.18 3.11892C127.421 1.4397 125.142 0.600098 122.343 0.600098C119.544 0.600098 117.225 1.4397 115.386 3.11892C113.627 4.71817 112.747 6.79721 112.747 9.35601C112.747 11.9148 113.627 14.0338 115.386 15.713Z" fill="#212322"/>
    <path d="M327.847 83.9609C326.743 83.9609 325.848 83.0658 325.848 81.9618V1.99907C325.848 0.895016 326.743 0 327.847 0H354.515C364.35 0 372.426 1.75918 378.743 5.27755C385.14 8.71594 389.858 13.5937 392.897 19.9107C396.015 26.1478 397.575 33.5044 397.575 41.9804C397.575 50.4565 396.015 57.853 392.897 64.1701C389.858 70.4072 385.14 75.2849 378.743 78.8033C372.426 82.2417 364.35 83.9609 354.515 83.9609H327.847ZM341.201 69.7675C341.201 70.3195 341.648 70.767 342.2 70.767H353.795C360.832 70.767 366.389 69.6475 370.467 67.4086C374.545 65.0897 377.464 61.8112 379.223 57.5732C380.982 53.2552 381.862 48.0576 381.862 41.9804C381.862 35.9832 380.982 30.8256 379.223 26.5076C377.464 22.1897 374.545 18.8712 370.467 16.5523C366.389 14.2334 360.832 13.0739 353.795 13.0739H342.2C341.648 13.0739 341.201 13.5214 341.201 14.0734V69.7675Z" fill="#007A3E"/>
    <path d="M430.272 85.4002C425.154 85.4002 420.956 84.6006 417.678 83.0013C414.399 81.3221 411.96 79.1231 410.361 76.4044C408.762 73.6856 407.962 70.687 407.962 67.4086C407.962 61.8911 410.121 57.4132 414.439 53.9748C418.757 50.5364 425.234 48.8172 433.87 48.8172H448.983V47.3779C448.983 40.1463 443.485 35.5034 436.297 35.5034C431.739 35.5034 427.298 37.1836 424.243 40.4277C423.63 41.0785 422.693 41.356 421.861 41.0305L412.673 37.4391C411.525 36.9903 411.05 35.6149 411.784 34.6253C417.5 26.9262 427.838 23.0293 436.796 23.0293C450.797 23.0293 464.336 31.4634 464.336 47.3779V81.9618C464.336 83.0658 463.441 83.9609 462.337 83.9609H452.984C451.994 83.9609 451.153 83.2369 451.007 82.2583L449.823 74.3653C448.064 77.5638 445.585 80.2026 442.386 82.2816C439.268 84.3607 435.23 85.4002 430.272 85.4002ZM433.75 73.4058C438.148 73.4058 441.547 71.9664 443.945 69.0878C446.198 66.4722 447.691 63.2954 448.425 59.5574C448.543 58.9575 448.073 58.4128 447.462 58.4128H435.549C431.471 58.4128 428.553 59.1724 426.793 60.6917C425.034 62.131 424.155 63.9302 424.155 66.0892C424.155 68.4081 425.034 70.2073 426.793 71.4867C428.553 72.7661 430.872 73.4058 433.75 73.4058Z" fill="#007A3E"/>
    <path d="M502.676 83.9609C496.438 83.9609 491.441 82.4416 487.683 79.403C483.924 76.3644 482.045 70.9669 482.045 63.2105V37.3026H473.849C472.745 37.3026 471.85 36.4076 471.85 35.3035V26.4677C471.85 25.3636 472.745 24.4686 473.849 24.4686H482.045L483.644 10.2911C483.758 9.28011 484.613 8.51604 485.631 8.51604H495.399C496.503 8.51604 497.398 9.41105 497.398 10.5151V24.4686H511.471C512.576 24.4686 513.471 25.3636 513.471 26.4677V35.3035C513.471 36.4076 512.576 37.3026 511.471 37.3026H497.398V63.3305C497.398 66.2091 497.998 68.2082 499.197 69.3277C500.477 70.3672 502.636 70.8869 505.674 70.8869H511.112C512.216 70.8869 513.111 71.782 513.111 72.886V81.9618C513.111 83.0658 512.216 83.9609 511.112 83.9609H502.676Z" fill="#007A3E"/>
    <path d="M544.066 85.4002C538.949 85.4002 534.751 84.6006 531.472 83.0013C528.194 81.3221 525.755 79.1232 524.156 76.4044C522.556 73.6857 521.757 70.6871 521.757 67.4086C521.757 61.8912 523.916 57.4133 528.234 53.9749C532.552 50.5365 539.029 48.8173 547.665 48.8173H562.778V47.3779C562.778 40.1464 557.279 35.5035 550.091 35.5035C545.533 35.5035 541.092 37.1836 538.038 40.4277C537.425 41.0785 536.488 41.356 535.655 41.0306L526.467 37.4391C525.319 36.9904 524.844 35.6149 525.581 34.6268C531.321 26.9267 541.824 23.0293 550.783 23.0293C564.784 23.0293 578.13 31.4634 578.13 47.3779V81.9618C578.13 83.0659 577.235 83.9609 576.131 83.9609H566.778C565.789 83.9609 564.948 83.2369 564.801 82.2584L563.617 74.3654C561.858 77.5639 559.379 80.2026 556.181 82.2817C553.062 84.3607 549.024 85.4002 544.066 85.4002ZM547.545 73.4058C551.943 73.4058 555.341 71.9665 557.74 69.0878C559.992 66.4722 561.485 63.2954 562.219 59.5575C562.337 58.9575 561.867 58.4128 561.256 58.4128H549.344C545.266 58.4128 542.347 59.1724 540.588 60.6917C538.829 62.1311 537.949 63.9302 537.949 66.0892C537.949 68.4081 538.829 70.2073 540.588 71.4867C542.347 72.7661 544.666 73.4058 547.545 73.4058Z" fill="#007A3E"/>
</svg>
